<svg width="21" height="16" viewBox="0 0 21 16" fill="none" xmlns="http://www.w3.org/2000/svg">
<path d="M1 15V1.3C1 1.13431 1.13431 1 1.3 1H6.39477C6.46289 1 6.52898 1.02318 6.58217 1.06574L8.91783 2.93426C8.97102 2.97682 9.03711 3 9.10523 3H15.7C15.8657 3 16 3.13431 16 3.3V6.6875M1 15L5.41491 6.84468C5.46734 6.74784 5.56861 6.6875 5.67873 6.6875H16M1 15H15.8114C15.9267 15 16.0318 14.934 16.0818 14.8301L19.793 7.11758C19.8889 6.91841 19.7437 6.6875 19.5227 6.6875H16" stroke="white" stroke-linecap="round"/>
</svg>
